# xmcd
#
# Track frame offsets: 
#        150
#        15154
#        34183
#        58739
#        78948
#        96420
#        110322
#        130021
#        143802
#        164578
#        184366
#
# Disc length: 2817 seconds
#
# Revision: 0
# Processed by: cddbd v1.5.2PL0 Copyright (c) Steve Scherf et al.
# Submitted via: ExactAudioCopy v1.0b1
#
DISCID=8d0aff0b
DTITLE=Midstokke - Private Stokke
DYEAR=2005
DGENRE=Bluesrock
TTITLE0=Rising Sun
TTITLE1=Rubbafunk
TTITLE2=Dog Fodder
TTITLE3=Gypsy Road
TTITLE4=Questions
TTITLE5=Riot
TTITLE6=The F**cker's B
TTITLE7=Happy Hour
TTITLE8=City Streets
TTITLE9=Chains
TTITLE10=Secrets From Silence
EXTD=
EXTT0=
EXTT1=
EXTT2=
EXTT3=
EXTT4=
EXTT5=
EXTT6=
EXTT7=
EXTT8=
EXTT9=
EXTT10=
PLAYORDER=
